<?xml version="1.0" standalone="no"?>
<!DOCTYPE svg PUBLIC "-//W3C//DTD SVG 20010904//EN"
 "http://www.w3.org/TR/2001/REC-SVG-20010904/DTD/svg10.dtd">
<svg version="1.0" xmlns="http://www.w3.org/2000/svg"
 width="260.000000pt" height="260.000000pt" viewBox="0 0 260.000000 260.000000"
 preserveAspectRatio="xMidYMid meet">
<metadata>
Created by potrace 1.14, written by Peter Selinger 2001-2017
</metadata>
<g transform="translate(0.000000,260.000000) scale(0.100000,-0.100000)"
fill="#000000" stroke="none">
<path d="M0 1300 l0 -1300 1300 0 1300 0 0 1300 0 1300 -1300 0 -1300 0 0
-1300z m1480 1075 c113 -19 191 -44 297 -95 317 -153 538 -449 598 -800 38
-221 5 -450 -94 -655 -58 -119 -113 -197 -206 -291 -209 -211 -479 -324 -775
-324 -170 0 -321 35 -477 110 -317 153 -538 449 -598 800 -27 159 -14 354 34
507 25 82 92 219 144 296 54 80 194 220 275 274 77 53 227 125 307 148 150 45
343 56 495 30z"/>
<path d="M999 1946 c-33 -34 -48 -123 -48 -292 l-1 -142 37 -36 c46 -44 64
-45 97 -5 63 75 98 218 77 314 -7 30 -16 55 -21 55 -5 0 -7 6 -4 14 8 20 -35
85 -67 101 -37 20 -43 19 -70 -9z m91 -69 c0 -7 6 -19 13 -25 8 -9 12 -48 12
-122 0 -74 -4 -113 -12 -121 -7 -7 -13 -23 -13 -36 0 -13 -4 -23 -10 -23 -5 0
-10 -6 -10 -12 -1 -7 -10 -24 -21 -37 -19 -23 -20 -23 -33 -6 -33 46 -20 297
20 376 7 14 10 37 7 50 l-5 24 26 -27 c14 -15 26 -33 26 -41z"/>
<path d="M1210 1958 c0 -7 -1 -122 -4 -254 -4 -268 -9 -249 63 -269 27 -8 64
27 112 105 66 107 78 368 19 400 -30 16 -75 12 -102 -9 l-24 -19 -13 29 c-13
29 -51 42 -51 17z m156 -55 c19 -26 18 -172 -2 -236 -18 -58 -45 -119 -57
-128 -4 -3 -10 -16 -12 -29 -6 -31 -17 -41 -34 -30 -12 7 -13 21 -3 87 7 43
12 119 12 170 0 101 9 136 43 164 28 23 36 23 53 2z"/>
<path d="M1275 1499 c-4 -6 -5 -12 -2 -15 2 -3 7 2 10 11 7 17 1 20 -8 4z"/>
<path d="M1478 1723 c-2 -137 -2 -253 0 -259 2 -7 22 -17 45 -23 41 -10 43
-10 78 27 72 74 108 188 109 335 0 81 -15 129 -45 141 -37 14 -84 6 -99 -16
-17 -24 -17 -24 -34 15 -7 16 -19 27 -31 27 -19 0 -20 -9 -23 -247z m161 183
c19 -22 24 -108 12 -179 -12 -67 -52 -170 -70 -182 -6 -3 -11 -19 -11 -35 0
-26 -21 -46 -34 -33 -9 9 5 335 16 370 9 30 49 73 68 73 4 0 13 -6 19 -14z"/>
<path d="M1545 1499 c-4 -6 -5 -12 -2 -15 2 -3 7 2 10 11 7 17 1 20 -8 4z"/>
<path d="M1310 1403 c-14 -2 -72 -7 -130 -12 -101 -8 -102 -8 -32 -10 40 0 72
-5 72 -11 0 -6 -48 -9 -127 -8 -71 1 -104 3 -75 5 91 7 56 19 -45 16 -123 -3
-128 -4 -73 -13 47 -7 28 -9 -160 -16 -25 -1 -65 -3 -90 -4 l-45 -2 40 -13 40
-13 -50 0 c-52 -1 -115 16 -67 17 34 1 26 21 -8 21 -23 0 -30 -4 -30 -20 0
-13 -7 -20 -20 -20 -27 0 -25 -14 3 -28 17 -8 -7 -11 -108 -12 -118 -1 -128
-2 -105 -15 30 -17 335 -22 345 -5 3 6 18 10 33 10 18 0 23 3 14 9 -8 5 2 7
25 5 21 -2 70 -4 108 -5 39 -1 62 -3 53 -6 -29 -7 -20 -23 13 -23 24 0 30 4
25 15 -4 10 1 15 14 15 11 0 19 -6 17 -12 -1 -10 74 -13 358 -11 198 2 379 2
403 2 23 0 42 5 42 11 0 16 27 12 34 -5 7 -20 46 -20 46 1 0 8 5 12 10 9 6 -3
10 -2 10 4 0 6 24 10 55 10 30 -1 55 -6 55 -11 0 -6 -17 -8 -40 -5 -26 3 -40
0 -40 -7 0 -6 23 -12 56 -14 53 -3 55 -2 52 20 -2 16 3 24 17 26 17 4 18 2 6
-12 -12 -14 -12 -16 2 -10 23 8 43 -6 26 -18 -9 -6 28 -7 101 -3 63 4 136 6
163 6 26 -1 47 3 47 9 0 5 -12 10 -26 10 -16 0 -23 4 -18 12 5 7 3 8 -7 2 -8
-4 -48 -10 -89 -11 l-75 -3 35 17 35 18 -27 3 c-32 4 -35 10 -10 28 16 11 15
13 -11 23 -20 8 -34 8 -49 0 -14 -7 -65 -10 -144 -7 -104 3 -126 7 -145 23
-12 11 -19 14 -15 8 8 -14 -4 -17 -74 -14 -34 2 -41 -1 -30 -8 12 -9 9 -11
-14 -11 -24 0 -27 2 -16 15 7 8 9 15 4 15 -48 -1 -296 10 -315 13 -13 2 -35 3
-49 0z m-33 -29 c-3 -3 -12 -4 -19 -1 -8 3 -5 6 6 6 11 1 17 -2 13 -5z m160 0
c-3 -3 -12 -4 -19 -1 -8 3 -5 6 6 6 11 1 17 -2 13 -5z m183 -4 c0 -6 -28 -10
-64 -10 -36 0 -68 5 -71 10 -4 6 20 10 64 10 41 0 71 -4 71 -10z m504 -35
c-12 -9 -42 -14 -79 -14 -59 0 -59 0 -30 14 17 7 52 14 79 14 46 1 48 0 30
-14z m-154 -5 c11 -7 1 -10 -35 -9 -37 0 -45 3 -30 9 27 12 47 12 65 0z
m-1184 -9 c-5 -8 -56 -3 -56 5 0 2 14 4 31 4 16 0 28 -4 25 -9z"/>
<path d="M1998 1373 c7 -3 16 -2 19 1 4 3 -2 6 -13 5 -11 0 -14 -3 -6 -6z"/>
<path d="M700 1259 c0 -5 25 -9 55 -9 72 0 72 14 0 17 -30 1 -55 -2 -55 -8z"/>
<path d="M1166 1209 c-6 -20 -26 -343 -26 -412 0 -55 20 -107 41 -107 5 0 9
37 9 83 0 96 10 121 31 80 17 -34 26 -43 61 -66 35 -22 57 -22 74 1 19 25 17
34 -5 20 -16 -10 -25 -9 -45 2 -14 7 -26 19 -26 25 0 7 -7 18 -15 25 -23 19
-18 67 10 104 14 18 25 38 25 44 0 7 4 12 9 12 5 0 12 13 16 30 4 16 11 32 16
35 17 11 10 97 -8 111 -25 19 -71 17 -91 -3 -16 -16 -17 -16 -20 0 -2 9 -7 17
-12 17 -5 0 -15 3 -24 6 -9 3 -18 0 -20 -7z m118 -96 c-3 -27 -13 -61 -21 -77
-10 -19 -11 -26 -3 -21 8 5 11 3 8 -6 -3 -8 -10 -14 -15 -14 -6 0 -15 -3 -19
-7 -16 -16 -23 5 -17 55 6 57 36 117 59 117 12 0 14 -9 8 -47z"/>
<path d="M1418 1198 c-14 -26 -20 -448 -6 -485 6 -20 15 -23 57 -23 75 0 112
10 109 29 -3 13 -16 16 -63 16 l-59 0 3 195 c2 106 7 205 12 218 12 32 11 38
-7 56 -21 22 -31 20 -46 -6z m19 -420 c-2 -24 -4 -7 -4 37 0 44 2 63 4 43 2
-21 2 -57 0 -80z"/>
<path d="M1627 1213 c-3 -5 -6 -120 -8 -256 l-4 -249 28 -14 c15 -8 27 -12 27
-8 0 4 7 1 16 -7 13 -11 21 -7 51 26 101 111 152 350 97 456 -23 45 -74 52
-118 18 -15 -12 -28 -20 -30 -18 -1 2 -7 16 -14 32 -11 25 -35 36 -45 20z
m159 -74 c29 -57 7 -228 -41 -313 -15 -26 -28 -57 -30 -68 -2 -11 -10 -27 -16
-35 -23 -27 -27 8 -20 187 7 181 14 209 55 242 29 24 33 23 52 -13z"/>
<path d="M1689 743 c-13 -16 -12 -17 4 -4 16 13 21 21 13 21 -2 0 -10 -8 -17
-17z"/>
<path d="M1061 1172 c-5 -9 -12 -35 -16 -57 -4 -22 -9 -48 -12 -59 -3 -11 -1
-16 5 -12 12 7 3 -175 -9 -189 -5 -5 -9 -30 -9 -56 0 -26 -4 -50 -9 -53 -18
-11 -42 90 -48 201 -3 61 -9 117 -13 124 -15 23 -51 -30 -62 -89 -24 -130 -27
-127 -25 23 l2 150 -27 3 -28 3 0 -198 c0 -209 3 -238 26 -247 26 -10 42 5 65
61 l22 55 12 -39 c7 -21 15 -50 19 -64 7 -33 50 -44 83 -23 31 19 40 66 48
237 4 91 12 162 21 183 8 18 14 40 14 49 0 21 -47 19 -59 -3z"/>
</g>
</svg>
